<svg xmlns="http://www.w3.org/2000/svg" width="150" height="150" version="1.1" viewBox="-0.9 -0.9 1.8 1.8"><g style="stroke-width:.1;stroke-linejoin:round;opacity:1"><polygon fill="#000" stroke="#000" points="0 -.717 .704 -.413 0 -.022 -.704 -.413"/><polygon fill="#000" stroke="#000" points="0 -.022 .704 -.413 .629 .369 0 .811"/><polygon fill="#000" stroke="#000" points="-.704 -.413 0 -.022 0 .811 -.629 .369"/></g><g style="opacity:1;stroke-opacity:.5;stroke-width:0;stroke-linejoin:round"><polygon fill="#FF0" stroke="#000" points="0 -.748 .196 -.663 0 -.571 -.196 -.663"/><polygon fill="#FF0" stroke="#000" points=".232 -.647 .444 -.555 .248 -.456 .036 -.555"/><polygon fill="#FF0" stroke="#000" points=".483 -.537 .712 -.438 .518 -.331 .287 -.438"/><polygon fill="#FF0" stroke="#000" points="-.232 -.647 -.036 -.555 -.248 -.456 -.444 -.555"/><polygon fill="#FF0" stroke="#000" points="0 -.537 .212 -.438 0 -.331 -.212 -.438"/><polygon fill="#FF0" stroke="#000" points=".251 -.419 .482 -.312 .271 -.194 .039 -.312"/><polygon fill="#FF0" stroke="#000" points="-.483 -.537 -.287 -.438 -.518 -.331 -.712 -.438"/><polygon fill="#FF0" stroke="#000" points="-.251 -.419 -.039 -.312 -.271 -.194 -.482 -.312"/><polygon fill="#FF0" stroke="#000" points="0 -.291 .231 -.173 0 -.045 -.231 -.173"/><polygon fill="#07F" stroke="#000" points=".02 -.011 .251 -.139 .241 .127 .02 .262"/><polygon fill="#07F" stroke="#000" points=".289 -.162 .501 -.279 .483 -.019 .28 .104"/><polygon fill="#07F" stroke="#000" points=".536 -.3 .73 -.407 .706 -.154 .518 -.04"/><polygon fill="#07F" stroke="#000" points=".019 .307 .241 .172 .232 .417 .019 .558"/><polygon fill="#07F" stroke="#000" points=".277 .149 .481 .025 .465 .265 .269 .394"/><polygon fill="#07F" stroke="#000" points=".515 .004 .702 -.11 .68 .125 .499 .244"/><polygon fill="#07F" stroke="#000" points=".018 .6 .231 .46 .223 .686 .018 .83"/><polygon fill="#07F" stroke="#000" points=".267 .435 .463 .307 .448 .529 .258 .662"/><polygon fill="#07F" stroke="#000" points=".495 .284 .676 .165 .656 .384 .48 .507"/><polygon fill="orange" stroke="#000" points="-.73 -.407 -.536 -.299 -.519 -.039 -.706 -.153"/><polygon fill="orange" stroke="#000" points="-.501 -.279 -.29 -.161 -.28 .105 -.484 -.019"/><polygon fill="orange" stroke="#000" points="-.252 -.139 -.02 -.01 -.02 .262 -.242 .127"/><polygon fill="orange" stroke="#000" points="-.703 -.11 -.515 .004 -.499 .244 -.68 .125"/><polygon fill="orange" stroke="#000" points="-.482 .026 -.278 .15 -.269 .395 -.465 .266"/><polygon fill="orange" stroke="#000" points="-.241 .173 -.02 .308 -.02 .558 -.233 .418"/><polygon fill="orange" stroke="#000" points="-.677 .166 -.496 .285 -.481 .507 -.656 .384"/><polygon fill="orange" stroke="#000" points="-.463 .307 -.267 .436 -.259 .662 -.448 .529"/><polygon fill="orange" stroke="#000" points="-.232 .46 -.019 .6 -.019 .83 -.224 .686"/></g></svg>